<?xml version="1.0" encoding="UTF-8"?>
<svg width="20px" height="12px" viewBox="0 0 20 12" version="1.1" xmlns="http://www.w3.org/2000/svg" xmlns:xlink="http://www.w3.org/1999/xlink">
    <title>C1CD12F3-D219-4E38-8220-2DC226176265</title>
    <g id="Design-Email" stroke="none" stroke-width="1" fill="none" fill-rule="evenodd" stroke-linecap="square">
        <g id="EMAIL-MARKETING" transform="translate(-323.000000, -1169.000000)" fill="#FFFFFF" stroke="#FFFFFF" stroke-width="0.1">
            <g id="CALL-TO-ACTION" transform="translate(224.000000, 1154.000000)">
                <path d="M100.433289,21.4588041 C100.193895,21.4588041 100,21.2552586 100,21.0039497 C100,20.7526408 100.193895,20.5490953 100.433289,20.5490953 L100.433289,20.5490953 L116.525487,20.5490953 L112.930377,16.7757876 C112.761681,16.5986957 112.761681,16.3106457 112.930377,16.132819 C113.099773,15.955727 113.374166,15.955727 113.542861,16.132819 L113.542861,16.132819 L117.872953,20.6784238 C118.042349,20.8562506 118.042349,21.1435657 117.872953,21.3213925 L117.872953,21.3213925 L113.542861,25.8669973 C113.458864,25.9551759 113.347566,26 113.236969,26 C113.126372,26 113.015775,25.9551759 112.930377,25.8669973 C112.761681,25.6891706 112.761681,25.4011206 112.930377,25.2240287 L112.930377,25.2240287 L116.517087,21.4588041 Z" id="Combined-Shape"></path>
            </g>
        </g>
    </g>
</svg>