<?xml version="1.0" encoding="UTF-8"?>
<svg width="28px" height="27px" viewBox="0 0 28 27" version="1.1" xmlns="http://www.w3.org/2000/svg" xmlns:xlink="http://www.w3.org/1999/xlink">
    <title>020DDDDD-20CB-4870-AC0E-BC70131F8092</title>
    <g id="Design-Email" stroke="none" stroke-width="1" fill="none" fill-rule="evenodd">
        <g id="EMAIL-MARKETING" transform="translate(-214.000000, -1457.000000)" fill="#FFFFFF" fill-rule="nonzero">
            <g id="Group-2" transform="translate(214.000000, 1456.000000)">
                <path d="M14.0000835,1 C6.26813077,1 0,7.06953803 0,14.5565199 C0,21.2714678 5.04730491,26.8325697 11.6651497,27.9094388 L11.6651497,17.3847771 L8.28792117,17.3847771 L8.28792117,13.5973802 L11.6651497,13.5973802 L11.6651497,10.8047006 C11.6651497,7.56439006 13.7089892,5.79860924 16.6945848,5.79860924 C18.1245042,5.79860924 19.3533464,5.90178427 19.7100747,5.94722656 L19.7100747,9.33421379 L17.639347,9.33518409 C16.0160327,9.33518409 15.7030604,10.0819902 15.7030604,11.1782653 L15.7030604,13.5954396 L19.5764686,13.5954396 L19.0712705,17.3828365 L15.7030604,17.3828365 L15.7030604,28 C22.6298693,27.1836559 28,21.4808905 28,14.5526387 C28,7.06953803 21.7318692,1 14.0000835,1 Z" id="Facebook"></path>
            </g>
        </g>
    </g>
</svg>