<?xml version="1.0" encoding="UTF-8"?>
<svg width="28px" height="28px" viewBox="0 0 28 28" version="1.1" xmlns="http://www.w3.org/2000/svg" xmlns:xlink="http://www.w3.org/1999/xlink">
    <title>28A83341-8AD2-46CC-BA29-81BAA22D0089</title>
    <g id="Design-Email" stroke="none" stroke-width="1" fill="none" fill-rule="evenodd">
        <g id="EMAIL-MARKETING" transform="translate(-262.000000, -1456.000000)" fill="#FFFFFF" fill-rule="nonzero">
            <g id="Group-2" transform="translate(214.000000, 1456.000000)">
                <path d="M62,0 C69.7319865,0 76,6.2680135 76,14 C76,21.7319865 69.7319865,28 62,28 C54.2680135,28 48,21.7319865 48,14 C48,6.2680135 54.2680135,0 62,0 Z M64.9,7 L59.5,7 C57.0151,7 55,9.0151 55,11.5 L55,16.9 C55,19.3849 57.0151,21.4 59.5,21.4 L64.9,21.4 C67.3849,21.4 69.4,19.3849 69.4,16.9 L69.4,11.5 C69.4,9.0151 67.3849,7 64.9,7 Z M64.9,8.35 C66.637,8.35 68.05,9.763 68.05,11.5 L68.05,16.9 C68.05,18.637 66.637,20.05 64.9,20.05 L59.5,20.05 C57.763,20.05 56.35,18.637 56.35,16.9 L56.35,11.5 C56.35,9.763 57.763,8.35 59.5,8.35 L64.9,8.35 Z M62.2,10.6 C60.2119,10.6 58.6,12.2119 58.6,14.2 C58.6,16.1881 60.2119,17.8 62.2,17.8 C64.1881,17.8 65.8,16.1881 65.8,14.2 C65.8,12.2119 64.1881,10.6 62.2,10.6 Z M62.2,11.95 C63.4402,11.95 64.45,12.9589 64.45,14.2 C64.45,15.4402 63.4402,16.45 62.2,16.45 C60.9598,16.45 59.95,15.4402 59.95,14.2 C59.95,12.9589 60.9598,11.95 62.2,11.95 Z M66.07,9.8503 C65.805069,9.8503 65.5903,10.065069 65.5903,10.33 C65.5903,10.594931 65.805069,10.8097 66.07,10.8097 C66.334931,10.8097 66.5497,10.594931 66.5497,10.33 C66.5497,10.065069 66.334931,9.8503 66.07,9.8503 Z" id="Instagram"></path>
            </g>
        </g>
    </g>
</svg>