<?xml version="1.0" encoding="UTF-8"?>
<svg width="28px" height="28px" viewBox="0 0 28 28" version="1.1" xmlns="http://www.w3.org/2000/svg" xmlns:xlink="http://www.w3.org/1999/xlink">
    <title>5F62BBDE-E1AD-4DB9-B7EF-FBA131A05DD0</title>
    <g id="Design-Email" stroke="none" stroke-width="1" fill="none" fill-rule="evenodd">
        <g id="EMAIL-MARKETING" transform="translate(-358.000000, -1456.000000)" fill="#FFFFFF" fill-rule="nonzero">
            <g id="Group-2" transform="translate(214.000000, 1456.000000)">
                <path d="M158,0 C165.731986,0 172,6.2680135 172,14 C172,21.7319865 165.731986,28 158,28 C150.268014,28 144,21.7319865 144,14 C144,6.2680135 150.268014,0 158,0 Z M154.272748,10.5944516 L150.938953,10.5944516 L150.938953,20.7407407 L154.272748,20.7407407 L154.272748,10.5944516 Z M162.457396,10.3562037 C160.685423,10.3562037 159.895061,11.3424039 159.451882,12.0322409 L159.451882,12.0322409 L159.451882,10.5944516 L156.116594,10.5944516 C156.129384,10.8663754 156.134866,11.8111622 156.136171,13.0221209 L156.136114,14.4029018 C156.133831,16.8122012 156.121798,19.6071039 156.11785,20.4718132 L156.117067,20.641098 C156.116965,20.6627403 156.116879,20.6809979 156.116809,20.6957225 L156.116594,20.7404892 L159.451633,20.7404892 L159.451633,15.0738634 C159.451633,14.7697011 159.474265,14.4685579 159.562055,14.2516945 C159.803789,13.6448794 160.351173,13.0181895 161.272599,13.0181895 C162.480027,13.0181895 162.961506,13.9490417 162.961506,15.3121112 L162.961506,15.3121112 L162.961506,20.7407407 L166.296296,20.7407407 L166.296296,14.9221596 C166.296296,11.8063205 164.651408,10.3562037 162.457396,10.3562037 Z M152.62786,5.7037037 C151.487083,5.7037037 150.740741,6.46121614 150.740741,7.45647327 C150.740741,8.43059754 151.465446,9.20999758 152.584089,9.20999758 L152.605726,9.20999758 C153.768886,9.20999758 154.4921,8.43059754 154.4921,7.45647327 C154.469966,6.46121614 153.768886,5.7037037 152.62786,5.7037037 Z" id="Linkedin"></path>
            </g>
        </g>
    </g>
</svg>