<?xml version="1.0" encoding="UTF-8"?>
<svg width="28px" height="28px" viewBox="0 0 28 28" version="1.1" xmlns="http://www.w3.org/2000/svg" xmlns:xlink="http://www.w3.org/1999/xlink">
    <title>DB437B1A-D3F8-4133-9DB6-DE7A8CC6AE58</title>
    <g id="Design-Email" stroke="none" stroke-width="1" fill="none" fill-rule="evenodd">
        <g id="EMAIL-MARKETING" transform="translate(-310.000000, -1456.000000)" fill="#FFFFFF" fill-rule="nonzero">
            <g id="Group-2" transform="translate(214.000000, 1456.000000)">
                <path d="M110,0 C117.731986,0 124,6.2680135 124,14 C124,21.7319865 117.731986,28 110,28 C102.268014,28 96,21.7319865 96,14 C96,6.2680135 102.268014,0 110,0 Z M109.741422,8.02498238 L109.538161,8.0249749 C108.789362,8.02712528 104.121396,8.05364654 102.87882,8.38074219 C102.152879,8.5798672 101.554977,9.17776958 101.355852,9.91794929 C101.038127,11.1251898 101.004085,13.4899466 101.000438,13.9828216 L101.000438,14.165926 C101.004085,14.6610703 101.038127,17.0357417 101.355852,18.2303637 C101.555188,18.9705434 102.138641,19.554102 102.878926,19.753438 C103.432851,19.9034744 104.648854,19.9926852 105.899075,20.0457295 L106.399501,20.0650768 C107.730898,20.1118376 109.005979,20.1211898 109.462756,20.1230602 L109.817683,20.1230781 C110.304175,20.1211666 111.716455,20.1111316 113.136453,20.0584474 L113.636455,20.0380259 C114.796896,19.9859812 115.88932,19.9022572 116.400969,19.7675708 C117.141255,19.5683403 117.724813,18.9847817 117.924149,18.244602 C118.241844,17.0372672 118.275883,14.6725845 118.27953,14.1797264 L118.279968,14.0883948 L118.279968,14.0883948 C118.279968,14.0883948 118.28013,14.0560414 118.279966,13.9966046 L118.279054,13.8431809 C118.272771,13.1286009 118.228027,11.0286106 117.923938,9.91794929 C117.724813,9.17766412 117.141149,8.59410549 116.400969,8.39476955 C115.816228,8.2347763 114.472883,8.14396932 113.136369,8.09243023 L112.636992,8.07488531 C111.314146,8.03269571 110.093811,8.0260342 109.741422,8.02498238 Z M107.917696,11.483633 L112.415516,14.0741565 L107.917696,16.66468 L107.917696,11.483633 Z" id="Youtube"></path>
            </g>
        </g>
    </g>
</svg>